<svg width="164" height="49" viewBox="0 0 164 49" fill="none" xmlns="http://www.w3.org/2000/svg">
<path d="M36.4547 1.98611C37.2486 1.98611 38.0518 2.27585 38.9531 2.88337C45.5281 7.29019 52.192 11.5615 58.8371 15.8608C60.2474 16.7721 61.3868 17.8283 61.9752 19.4826C64.7724 27.3195 67.5603 35.1612 70.4789 42.9561C71.4922 45.6619 70.731 46.7273 68.0786 46.7273C68.0039 46.7273 67.9292 46.7273 67.8545 46.7227C66.3928 46.69 49.9785 46.6619 34.2786 46.6619C20.6335 46.6619 7.52533 46.6853 5.2418 46.746C5.13906 46.7507 5.03633 46.7507 4.93826 46.7507C2.38388 46.7507 1.37521 45.8114 2.34652 43.143C5.2885 35.0677 8.26316 27.0018 11.1911 18.9218C11.7515 17.375 13.003 16.5899 14.2592 15.7674C20.7782 11.5148 27.3299 7.32291 33.7789 2.97683C34.7409 2.33193 35.5908 1.98611 36.4547 1.98611ZM36.4547 0C35.2172 0 34.0124 0.420588 32.6675 1.33186C27.9977 4.47693 23.1832 7.6033 18.5274 10.6222C16.7435 11.7811 14.9596 12.9401 13.1758 14.1037L13.0777 14.1691C11.7515 15.0337 10.0984 16.1132 9.32787 18.2442C7.52066 23.2258 5.67142 28.2869 3.87822 33.1797C2.74813 36.2734 1.61337 39.3624 0.487944 42.4607C0.231105 43.1664 -0.548751 45.3067 0.646717 47.0171C1.84686 48.7368 4.17708 48.7368 4.94293 48.7368C5.05968 48.7368 5.17642 48.7368 5.29784 48.7321C7.24981 48.6807 17.8129 48.648 34.2833 48.648C50.0812 48.648 66.3788 48.6761 67.8171 48.7088C67.9058 48.7088 67.9946 48.7135 68.0833 48.7135C68.8304 48.7135 71.0953 48.7135 72.2721 47.0171C73.4769 45.2787 72.627 43.0028 72.3468 42.2551C69.5683 34.834 66.8551 27.2354 64.2354 19.8845L63.8524 18.8096C62.9979 16.417 61.3027 15.0851 59.9205 14.1878C58.7343 13.4214 57.5482 12.655 56.3574 11.884C50.9965 8.42111 45.4488 4.83676 40.0645 1.22905C38.827 0.401895 37.6455 0 36.4547 0Z" fill="#EDAD63"/>
<path d="M30.2577 31.6374C26.9235 32.0439 24.1122 30.8336 21.4598 29.0951C21.4365 30.5345 20.8761 31.7262 19.9655 32.7589C19.0082 33.8431 17.8267 34.6703 16.6826 35.5301C15.814 36.1844 15.2069 36.9601 14.9268 38.0256C14.6466 39.0818 14.2917 40.1146 14.0768 41.1894C13.9368 41.8904 14.0815 42.4091 14.6933 42.8016C15.0388 43.0213 15.2863 43.3204 15.1789 43.8017C15.1042 43.9933 14.9268 44.0073 14.7353 44.0027C14.0955 43.998 13.4558 44.0027 12.816 43.998C12.1436 43.998 11.9054 43.7363 11.9941 43.0774C12.1389 42.0212 12.2836 40.9604 12.4658 39.9089C12.6666 38.7547 12.8674 37.6004 12.9841 36.4274C13.0355 35.904 13.2503 35.4554 13.5865 35.0535C14.8193 33.5674 15.6179 31.8804 15.9401 29.9737C16.0335 29.4316 16.0055 28.8755 15.9634 28.3334C15.9261 27.8053 15.8841 27.2773 15.8981 26.637C15.5432 27.3053 15.4731 27.9362 15.361 28.5531C15.221 29.3522 15.0435 30.1373 14.6512 30.8569C14.3384 31.4271 13.9041 31.857 13.2503 32.0159C13.0775 32.058 12.9187 32.0673 12.7646 31.9458C12.6899 31.7075 12.76 31.4878 12.8674 31.2775C13.0308 30.9504 13.241 30.6513 13.4744 30.3663C14.1189 29.5812 14.4738 28.6652 14.4598 27.6651C14.4271 25.6744 15.3891 24.1836 16.734 22.8658C17.3597 22.2536 18.0368 21.7068 18.7933 21.2021C19.2837 21.7208 19.9234 21.7956 20.5865 21.7956C23.7433 21.7956 26.9048 21.7909 30.0616 21.8003C30.8134 21.8003 31.4905 21.6648 31.9528 20.9778C32.714 21.0946 33.3258 21.4778 33.9095 21.9171C34.5025 22.3564 34.9508 22.9359 35.4412 23.478C36.0296 24.1275 36.716 24.6509 37.5799 24.8472C38.8268 25.1369 40.0409 24.5061 40.6387 23.291C41.0076 22.5433 41.2551 21.7442 41.5119 20.9498C41.8435 19.9076 42.0723 18.8375 42.5299 17.8467C41.9742 16.6457 41.9555 16.3186 42.4179 15.9541C42.9595 15.9681 43.3985 16.2999 43.9075 16.5102C44.4212 16.2392 44.9816 16.2485 45.5139 16.4635C46.5973 16.9074 47.7414 17.0617 48.8855 17.2579C49.7728 17.4121 50.52 17.7673 50.7955 18.744C51.085 19.7721 50.6554 20.4264 49.5953 20.389C48.4699 20.3469 47.4379 20.6694 46.3918 20.9918C46.0603 21.0946 45.9062 21.2862 45.8315 21.6087C45.5746 22.7536 45.3131 23.8939 44.8742 24.9874C44.2391 26.5763 43.3051 27.9502 41.9742 29.0718C42.7728 30.3335 43.7534 31.399 45.0143 32.1841C45.9062 32.7356 46.8728 32.9085 47.9142 32.6701C47.9656 32.5627 47.8115 32.5907 47.7975 32.5066C48.6193 30.5438 49.6747 28.6933 50.8982 26.9408C51.0103 26.7819 51.1224 26.6184 51.2298 26.4548C51.7668 25.6463 52.4673 25.0855 53.5413 25.0014C53.3218 24.8893 53.1537 24.8706 52.9856 24.8519C52.8175 24.8332 52.6494 24.8051 52.4859 24.7678C52.0563 24.6696 51.9116 24.3425 52.2057 24.0715C52.8082 23.5153 53.2051 22.8424 53.4059 22.0059C54.5593 21.8984 55.6754 21.6133 56.8709 21.3189C56.7915 21.9638 56.8569 22.548 57.1044 23.0434C57.0717 23.3097 56.8849 23.3097 56.7355 23.3751C56.6888 23.735 56.7121 24.1369 56.3479 24.3752C56.021 24.436 55.7221 24.3612 55.4139 24.2163C55.3439 24.436 55.3298 24.6369 55.4326 24.8051C56.1564 26.0108 56.3012 27.3474 56.3852 28.7119C56.4366 29.5111 56.7681 30.2214 57.2024 30.8803C57.604 31.4878 58.015 32.0907 58.4119 32.6795C58.3605 32.8337 58.1971 32.7917 58.1364 32.8991C58.3232 33.0954 58.5427 33.2683 58.6641 33.5207C58.9069 34.016 58.7108 34.5114 58.2064 34.6422C57.8375 34.7404 57.534 34.5768 57.4032 34.217C57.3332 34.0207 57.2725 33.8244 57.2118 33.6515C57.0296 33.5674 56.9222 33.731 56.7681 33.7123C56.6561 33.6655 56.6654 33.5207 56.53 33.3992C56.9923 36.3012 57.5527 39.1332 58.0617 41.9324C57.8655 42.1521 57.618 42.0633 57.4313 42.1895C57.4079 42.4558 57.6134 42.5399 57.8002 42.61C58.1878 42.7643 58.5847 42.8904 58.9676 43.0493C59.4206 43.2363 59.4906 43.5073 59.2058 43.9653H55.9836C55.6334 43.54 55.596 42.9839 55.4372 42.4091C53.4993 42.6988 51.5613 42.6942 49.6794 42.0399C49.558 42.4745 49.6654 42.7689 50.0063 43.0026C50.2724 43.1802 50.5947 43.2877 50.7441 43.6008C50.7348 43.8812 50.5526 43.9606 50.3332 43.9933C49.8989 44.0587 49.4786 43.984 49.0676 43.8391C48.4419 43.6195 47.8488 43.3344 47.2978 42.9091C47.4519 42.4091 47.7181 41.9932 47.9189 41.5399C47.8955 41.3857 47.6901 41.4324 47.6293 41.2735C48.3111 40.1286 48.9602 38.9416 49.3992 37.6565C50.1977 35.3292 50.9636 32.9926 51.7481 30.6607C51.7948 30.5158 51.8462 30.3709 51.8649 30.2074C50.9729 31.2869 50.2725 32.4972 49.5346 33.7076C49.4692 33.7824 49.3805 33.6702 49.2591 33.7029C49.1564 34.4366 48.8201 34.932 47.9889 34.6235C47.5826 34.474 47.648 34.0207 47.592 33.6328C44.566 33.7263 42.7774 31.7776 41.1056 29.6092C39.672 30.4457 38.131 30.7822 36.4545 30.7261C36.5759 31.156 36.6833 31.5533 36.8001 31.9505C37.2484 33.4973 37.636 35.0675 38.4065 36.5022C38.7801 37.1938 38.7848 38.0116 39.0649 38.7453C39.3825 39.5725 39.672 40.409 39.9662 41.2408C40.195 41.8904 40.5826 42.3717 41.2738 42.5773C41.8061 42.7409 42.2964 43.2503 42.1844 43.783C42.0816 43.9372 41.9229 43.9699 41.7454 43.9699C41.0263 43.9699 40.3118 43.9699 39.5926 43.9699C39.1677 43.9699 39.0229 43.6568 38.9062 43.3344C38.3598 41.8296 37.7901 40.3295 37.0943 38.8902C36.0249 36.6751 34.8808 34.502 33.5125 32.3898C32.7 33.6328 31.8734 34.8198 31.3224 36.1517C30.7854 37.4508 30.0709 38.6752 29.7253 40.0491C29.6179 40.4791 29.4778 40.8997 29.3751 41.3296C29.1603 42.2222 29.179 42.2689 29.9448 42.7689C30.3277 43.0213 30.5612 43.325 30.4538 43.8111C30.4492 43.8344 30.4305 43.8578 30.4165 43.8812C30.2857 43.998 30.1223 43.9746 29.9682 43.9793C29.3938 43.984 28.8194 43.984 28.245 43.9793C27.4745 43.9699 27.1009 43.4886 27.1943 42.7269C27.3858 41.1473 27.9835 39.68 28.3524 38.1518C28.8474 36.0863 29.5105 34.0721 30.1316 32.0439C30.1736 31.9645 30.197 31.8523 30.2577 31.6374Z" fill="white"/>
<path d="M25.2749 21.2115C23.5891 21.2115 21.908 21.2115 20.2222 21.2115C19.363 21.2115 18.966 20.8376 18.9567 19.9824C18.938 18.5992 18.9427 17.2112 18.952 15.828C18.9567 15.1924 19.4237 14.7812 20.2082 14.6924C20.3389 14.6783 20.4697 14.6783 20.6005 14.6783C23.7572 14.6783 26.9187 14.6737 30.0801 14.6783C31.1589 14.6783 31.6212 15.141 31.6259 16.2252C31.6305 17.4776 31.6305 18.7347 31.6259 19.9871C31.6259 20.8143 31.2336 21.2021 30.4024 21.2021C28.6932 21.2068 26.9841 21.2021 25.2703 21.2021V21.2115H25.2749Z" fill="white"/>
<path d="M21.9828 30.1465C22.6459 30.511 23.2903 30.8615 23.9628 31.2353C23.6593 32.0672 23.3604 32.8663 23.0709 33.6747C22.6646 34.801 22.2256 35.9132 21.9081 37.0722C21.796 37.4881 21.8427 37.8619 22.0435 38.2405C22.6459 39.3807 23.253 40.5163 23.8227 41.6753C24.0842 42.2033 24.4391 42.5865 24.9761 42.8342C25.5552 43.1006 25.6673 43.3343 25.5926 44.0025C24.7613 44.0633 23.9161 44.0165 23.0942 44.0165C22.842 43.7922 22.7393 43.5212 22.6039 43.2688C21.8287 41.8108 21.1703 40.2873 20.2503 38.9041C20.0262 38.5676 19.7927 38.2358 19.5265 37.932C19.1669 37.5301 19.1903 37.0722 19.2743 36.6048C19.4144 35.8478 19.4798 35.0814 19.5685 34.315C19.5919 34.1421 19.6246 33.9925 19.7647 33.8617C20.8013 32.885 21.5485 31.726 21.9081 30.3334C21.9174 30.282 21.9454 30.2353 21.9828 30.1465Z" fill="white"/>
<path d="M56.8659 20.7443C55.7731 21.1976 54.643 21.4733 53.4896 21.5855C53.1347 20.9406 53.6204 19.9919 54.3489 19.7816C54.6711 19.6882 54.9886 19.6975 55.3155 19.7723C55.7498 19.8751 56.1701 19.9966 56.539 20.263C56.6884 20.3705 56.8098 20.506 56.8659 20.7443Z" fill="white"/>
<path d="M104.246 43.8116H104.385H107.283V46.0537H97.5996C96.728 46.0537 95.8618 45.9573 95.0169 45.7593C94.2095 45.5667 93.4288 45.2938 92.7016 44.9299C91.9904 44.5768 91.338 44.1433 90.7498 43.6403C90.167 43.1427 89.6644 42.5862 89.2419 41.9708C88.8195 41.3554 88.4987 40.6919 88.2741 40.0016C88.0442 39.2899 87.9319 38.5568 87.9319 37.813C87.9319 37.0692 88.0442 36.3415 88.2741 35.6298C88.4987 34.9395 88.8195 34.2759 89.2419 33.6606C89.659 33.0505 90.167 32.494 90.7498 31.9964C91.338 31.4934 91.9957 31.0653 92.7069 30.7121C93.4341 30.3482 94.2095 30.07 95.0169 29.8827C95.8618 29.6847 96.728 29.5938 97.5996 29.5938C98.4658 29.5938 99.3267 29.6847 100.172 29.8827C100.979 30.0753 101.76 30.3482 102.487 30.7121C103.198 31.0706 103.861 31.4987 104.455 31.9964C105.038 32.4887 105.551 33.0452 105.968 33.6606C106.39 34.2759 106.711 34.9395 106.936 35.6298C107.166 36.3415 107.278 37.0746 107.278 37.813C107.278 38.5568 107.166 39.2899 106.936 40.0016C106.711 40.6919 106.385 41.3554 105.968 41.9708C105.749 42.2972 105.497 42.6022 105.225 42.8965C104.984 43.1587 104.722 43.4049 104.449 43.6403C104.385 43.6992 104.316 43.7527 104.246 43.8116ZM102.257 42.0885C102.856 41.5373 103.321 40.9006 103.647 40.1942C104 39.4397 104.161 38.6424 104.161 37.8237C104.161 37.005 104 36.2077 103.647 35.4532C103.316 34.7468 102.856 34.1047 102.257 33.5589C101.658 33.0131 100.958 32.5957 100.172 32.296C99.3535 31.9857 98.4872 31.8358 97.5942 31.8358C96.712 31.8358 95.8564 31.9857 95.0436 32.296C94.2576 32.5957 93.5571 33.0131 92.9582 33.5589C92.354 34.1101 91.8834 34.7468 91.5519 35.4585C91.199 36.213 91.0386 37.0103 91.0386 37.8291C91.0386 38.6478 91.199 39.4451 91.5519 40.1996C91.8834 40.9113 92.3487 41.5481 92.9582 42.0992C93.5571 42.6397 94.2576 43.0624 95.0436 43.3621C95.8564 43.6724 96.712 43.8223 97.5942 43.8223C98.4819 43.8223 99.3535 43.6778 100.172 43.3621C100.958 43.0517 101.658 42.6343 102.257 42.0885Z" fill="#EDAD63"/>
<path d="M109.759 37.2938C110.112 36.5393 110.615 35.8811 111.267 35.3085C111.936 34.7199 112.722 34.2811 113.593 33.9654C114.55 33.6176 115.566 33.4678 116.598 33.4678C117.63 33.4678 118.652 33.6176 119.609 33.9654C120.069 34.1313 120.513 34.3347 120.924 34.5754C121.288 34.7895 121.63 35.0303 121.946 35.3085C122.598 35.8811 123.101 36.5446 123.459 37.2938C123.828 38.0644 123.994 38.8831 123.994 39.7178V45.5612H120.924V44.8656C120.513 45.1064 120.069 45.3044 119.603 45.4702C118.636 45.8181 117.609 45.9625 116.566 45.9625C115.545 45.9625 114.534 45.8127 113.588 45.4649C112.722 45.1492 111.936 44.7104 111.267 44.1271C110.615 43.5599 110.118 42.8964 109.765 42.1472C109.396 41.3713 109.225 40.558 109.225 39.7178C109.225 38.8831 109.39 38.0644 109.759 37.2938ZM120.641 41.382C120.78 41.077 120.871 40.7559 120.919 40.4349C120.956 40.1994 120.978 39.9586 120.978 39.7178C120.978 39.4824 120.962 39.2469 120.919 39.0115C120.865 38.6904 120.775 38.3747 120.635 38.0697C120.422 37.5881 120.117 37.1493 119.71 36.7747C119.315 36.4055 118.844 36.1273 118.315 35.9293C117.769 35.7259 117.192 35.635 116.604 35.635C116.016 35.635 115.449 35.7313 114.903 35.9293C114.374 36.1273 113.914 36.4109 113.513 36.7747C113.107 37.1493 112.797 37.5828 112.583 38.0697C112.347 38.5941 112.251 39.1506 112.251 39.7178C112.251 40.285 112.347 40.8469 112.583 41.3767C112.802 41.8636 113.112 42.3024 113.518 42.677C113.919 43.0409 114.39 43.3298 114.919 43.5278C115.459 43.7311 116.032 43.8221 116.62 43.8221C117.208 43.8221 117.785 43.7311 118.331 43.5278C118.86 43.3298 119.325 43.0462 119.721 42.6823C120.128 42.3078 120.427 41.8636 120.641 41.382Z" fill="#EDAD63"/>
<path d="M127.469 45.5611V36.8923H125.95V34.7679H127.469V34.0081C127.469 32.0389 129.068 30.3319 131.239 29.9734C131.517 29.9252 131.8 29.9038 132.078 29.9038H133.57V32.0282H132.731C131.522 32.0282 130.538 32.9058 130.538 33.9813V34.7679H133.57V36.8923H130.538V45.5611H127.469Z" fill="#EDAD63"/>
<path d="M138.966 30.4283C138.966 31.2738 138.196 31.9641 137.244 31.9641C136.292 31.9641 135.522 31.2792 135.522 30.4283C135.522 29.5829 136.292 28.8926 137.244 28.8926C138.19 28.8979 138.966 29.5829 138.966 30.4283ZM138.773 45.5612H135.704V33.8905H138.773V45.5612Z" fill="#EDAD63"/>
<path d="M144.002 29.9092V41.4889C144.002 42.5645 144.986 43.442 146.195 43.442H147.034V45.5664H145.542C145.259 45.5664 144.976 45.545 144.703 45.4969C142.532 45.1383 140.933 43.4313 140.933 41.4621V29.9092H144.002Z" fill="#EDAD63"/>
<path d="M149.526 37.2938C149.879 36.5393 150.381 35.8811 151.034 35.3085C151.702 34.7199 152.488 34.2811 153.36 33.9654C154.317 33.6176 155.333 33.4678 156.365 33.4678C157.397 33.4678 158.418 33.6176 159.375 33.9654C159.835 34.1313 160.279 34.3347 160.691 34.5754C161.054 34.7895 161.397 35.0303 161.712 35.3085C162.365 35.8811 162.867 36.5446 163.225 37.2938C163.594 38.0644 163.76 38.8831 163.76 39.7178V45.5612H160.691V44.8656C160.279 45.1064 159.835 45.3044 159.37 45.4702C158.402 45.8181 157.376 45.9625 156.333 45.9625C155.312 45.9625 154.301 45.8127 153.355 45.4649C152.488 45.1492 151.702 44.7104 151.034 44.1271C150.381 43.5599 149.884 42.8964 149.531 42.1472C149.162 41.3713 148.991 40.558 148.991 39.7178C148.991 38.8831 149.162 38.0644 149.526 37.2938ZM160.413 41.382C160.552 41.077 160.643 40.7559 160.691 40.4349C160.728 40.1994 160.75 39.9586 160.75 39.7178C160.75 39.4824 160.734 39.2469 160.691 39.0115C160.637 38.6904 160.546 38.3747 160.407 38.0697C160.194 37.5881 159.889 37.1493 159.482 36.7747C159.087 36.4055 158.616 36.1273 158.087 35.9293C157.541 35.7259 156.964 35.635 156.376 35.635C155.787 35.635 155.221 35.7313 154.675 35.9293C154.146 36.1273 153.686 36.4109 153.285 36.7747C152.879 37.1493 152.568 37.5828 152.355 38.0697C152.119 38.5941 152.023 39.1506 152.023 39.7178C152.023 40.285 152.119 40.8469 152.355 41.3767C152.574 41.8636 152.884 42.3024 153.29 42.677C153.691 43.0409 154.162 43.3298 154.691 43.5278C155.231 43.7311 155.804 43.8221 156.392 43.8221C156.98 43.8221 157.557 43.7311 158.103 43.5278C158.632 43.3298 159.097 43.0462 159.493 42.6823C159.894 42.3078 160.199 41.8636 160.413 41.382Z" fill="#EDAD63"/>
<path d="M102.738 9.16351L102.786 21.8509H105.043L105.588 24.9866H98.9951V12.3153H96.1717C95.6584 12.3153 95.1397 12.4116 94.6104 12.5989C94.081 12.7862 93.6051 13.0752 93.188 13.4658C92.7656 13.8564 92.4234 14.3487 92.1614 14.9427C91.8993 15.5366 91.7657 16.2483 91.7657 17.0671C91.7657 17.8697 91.8887 18.5654 92.14 19.17C92.3859 19.7693 92.7175 20.267 93.1292 20.663C93.5409 21.059 94.0115 21.3533 94.5409 21.5566C95.0702 21.7546 95.6156 21.8563 96.1771 21.8563H98.1609L98.1342 24.992H97.1182C96.4391 24.992 95.744 24.9438 95.0221 24.8529C94.3002 24.7619 93.5998 24.6014 92.9153 24.3659C92.2309 24.1305 91.5839 23.8255 90.985 23.4402C90.3807 23.0549 89.8514 22.5733 89.3862 21.9847C88.921 21.3961 88.5627 20.7004 88.2953 19.8924C88.0333 19.0844 87.8997 18.148 87.8997 17.0724C87.8997 15.7935 88.1724 14.6216 88.7178 13.5568C89.2632 12.4919 89.9797 11.5876 90.8727 10.8331C91.2684 10.5227 91.6748 10.2658 92.0865 10.0625C92.4982 9.85915 92.91 9.69327 93.327 9.56485C93.8083 9.42572 94.359 9.3294 94.9847 9.26519C95.6103 9.20097 96.3215 9.16887 97.1182 9.16887H102.738V9.16351ZM93.7922 3.14355C94.1398 3.14355 94.466 3.19172 94.7708 3.28268C95.0756 3.37365 95.3429 3.50208 95.5782 3.66261C95.8081 3.82314 95.9899 4.01043 96.1236 4.21912C96.2573 4.43317 96.3215 4.65256 96.3215 4.87731C96.3215 5.1181 96.2573 5.34285 96.1236 5.55689C95.9899 5.77093 95.8081 5.95287 95.5782 6.1134C95.3483 6.27394 95.0756 6.40236 94.7708 6.49868C94.466 6.595 94.1398 6.64316 93.7922 6.64316C93.4607 6.64316 93.1452 6.595 92.8405 6.49868C92.5357 6.40236 92.2683 6.27394 92.0491 6.1134C91.8245 5.95287 91.648 5.76558 91.5144 5.55689C91.3807 5.3482 91.3165 5.1181 91.3165 4.87731C91.3165 4.64721 91.3807 4.42781 91.5144 4.21912C91.648 4.01043 91.8245 3.82314 92.0491 3.66261C92.2737 3.50208 92.5357 3.379 92.8405 3.28268C93.1452 3.19172 93.4607 3.14355 93.7922 3.14355ZM99.4175 3.14355C99.765 3.14355 100.097 3.19172 100.407 3.28268C100.722 3.37365 100.995 3.50208 101.225 3.66261C101.455 3.82314 101.637 4.01043 101.77 4.21912C101.904 4.43317 101.968 4.65256 101.968 4.87731C101.968 5.1181 101.904 5.34285 101.77 5.55689C101.637 5.77093 101.455 5.95287 101.225 6.1134C100.995 6.27394 100.722 6.40236 100.407 6.49868C100.091 6.595 99.765 6.64316 99.4175 6.64316C99.086 6.64316 98.7705 6.595 98.4657 6.49868C98.1609 6.40236 97.8935 6.27394 97.6743 6.1134C97.4497 5.95287 97.2733 5.76558 97.1396 5.55689C97.0059 5.3482 96.9417 5.1181 96.9417 4.87731C96.9417 4.64721 97.0059 4.42781 97.1396 4.21912C97.2733 4.01043 97.4497 3.82314 97.6743 3.66261C97.8989 3.50208 98.1609 3.379 98.4657 3.28268C98.7705 3.19172 99.086 3.14355 99.4175 3.14355Z" fill="white"/>
<path d="M111.561 2.68311H115.325L115.277 17.2594C115.325 18.0353 115.486 18.7149 115.748 19.2929C116.01 19.8708 116.357 20.347 116.774 20.7269C117.197 21.1015 117.673 21.3851 118.197 21.5778C118.726 21.765 119.272 21.8614 119.833 21.8614H120.774L121.32 24.9971H120.747C120.122 24.9971 119.469 24.9596 118.801 24.8794C118.133 24.7991 117.475 24.66 116.833 24.4673C116.192 24.2747 115.571 24.0125 114.988 23.6807C114.4 23.349 113.876 22.9316 113.416 22.4286C112.935 22.9316 112.406 23.349 111.818 23.6807C111.229 24.0125 110.614 24.2747 109.973 24.4673C109.331 24.66 108.673 24.7991 108.005 24.8794C107.337 24.9596 106.69 24.9971 106.059 24.9971H105.588L105.043 21.8614H107C107.561 21.8614 108.107 21.765 108.636 21.5778C109.165 21.3905 109.641 21.1069 110.058 20.7269C110.481 20.3524 110.823 19.8708 111.085 19.2929C111.347 18.7149 111.507 18.0407 111.556 17.2594V2.68311H111.561Z" fill="white"/>
<path d="M131.854 9.35081C132.233 9.47923 132.613 9.63441 132.993 9.8324C133.372 10.025 133.752 10.2712 134.132 10.5709C134.575 10.9508 134.987 11.3842 135.356 11.8765C135.73 12.3688 136.041 12.8986 136.297 13.4711C136.554 14.0437 136.757 14.643 136.907 15.2691C137.057 15.8952 137.131 16.5373 137.131 17.1901C137.131 18.7312 136.843 20.0102 136.265 21.0162C135.688 22.0222 134.95 22.8248 134.062 23.4188C133.169 24.0128 132.18 24.4301 131.089 24.6602C129.998 24.8957 128.94 25.008 127.918 24.9973H121.32L120.774 21.8616H123.127C122.699 21.1874 122.363 20.4596 122.122 19.673C121.881 18.8918 121.764 18.0624 121.764 17.1955C121.764 15.9968 121.919 14.948 122.234 14.0491C122.55 13.1501 122.967 12.3849 123.496 11.7427C124.026 11.1006 124.635 10.5869 125.33 10.1909C126.025 9.79495 126.753 9.50064 127.512 9.308C128.303 9.13676 129.052 9.06185 129.752 9.08325C130.464 9.09931 131.159 9.19562 131.854 9.35081ZM127.442 12.9895C126.999 13.332 126.624 13.7708 126.325 14.3006C126.025 14.8303 125.822 15.4029 125.705 16.0129C125.587 16.6229 125.565 17.249 125.63 17.8911C125.694 18.5332 125.86 19.1272 126.127 19.673C126.389 20.2242 126.737 20.6683 127.154 21.0215C127.576 21.3693 128.025 21.6155 128.506 21.7492C128.988 21.8884 129.474 21.9098 129.982 21.8188C130.485 21.7278 130.961 21.5138 131.405 21.182C131.864 20.8396 132.244 20.4008 132.533 19.871C132.822 19.3413 133.025 18.7687 133.142 18.1587C133.26 17.5487 133.276 16.9226 133.207 16.2804C133.132 15.6383 132.961 15.0443 132.699 14.4985C132.415 13.9474 132.073 13.5032 131.672 13.1501C131.266 12.8022 130.827 12.5561 130.346 12.4223C129.865 12.2832 129.373 12.2618 128.87 12.3474C128.362 12.433 127.886 12.6471 127.442 12.9895ZM129.03 3.14355C129.378 3.14355 129.704 3.19172 130.009 3.28268C130.314 3.37365 130.586 3.50208 130.827 3.66261C131.068 3.82314 131.255 4.01043 131.383 4.21912C131.517 4.43317 131.581 4.65256 131.581 4.87731C131.581 5.1181 131.517 5.34285 131.383 5.55689C131.25 5.77093 131.068 5.95287 130.827 6.1134C130.586 6.27394 130.314 6.40236 130.009 6.49868C129.704 6.595 129.378 6.64316 129.03 6.64316C128.699 6.64316 128.383 6.595 128.079 6.49868C127.774 6.40236 127.507 6.27394 127.287 6.1134C127.063 5.95287 126.886 5.76558 126.753 5.55689C126.619 5.3482 126.555 5.1181 126.555 4.87731C126.555 4.64721 126.619 4.42781 126.753 4.21912C126.886 4.01043 127.063 3.82314 127.287 3.66261C127.512 3.50208 127.774 3.379 128.079 3.28268C128.378 3.19172 128.699 3.14355 129.03 3.14355Z" fill="white"/>
<path d="M141.965 16.7939C141.965 17.6501 142.093 18.3939 142.35 19.0253C142.607 19.6567 142.949 20.1811 143.377 20.6039C143.805 21.0266 144.291 21.3423 144.837 21.5457C145.382 21.749 145.954 21.856 146.548 21.856H147.441L147.986 24.9918H147.489C146.81 24.9918 146.115 24.9436 145.393 24.8526C144.676 24.7617 143.976 24.6011 143.297 24.3657C142.617 24.1302 141.976 23.8252 141.366 23.44C140.757 23.0547 140.217 22.5731 139.757 21.9845C139.292 21.3958 138.933 20.7002 138.666 19.8922C138.404 19.0842 138.27 18.1477 138.27 17.0722C138.27 14.6588 138.265 12.2616 138.26 9.88032C138.254 7.49909 138.254 5.10181 138.27 2.68848H141.987L141.965 16.7939Z" fill="white"/>
<path d="M158.515 9.35081C158.895 9.47923 159.274 9.63441 159.654 9.8324C160.034 10.025 160.413 10.2712 160.793 10.5709C161.237 10.9508 161.648 11.3842 162.017 11.8765C162.392 12.3688 162.702 12.8986 162.958 13.4711C163.215 14.0437 163.418 14.643 163.568 15.2691C163.718 15.8952 163.793 16.5373 163.793 17.1901C163.793 18.7312 163.504 20.0102 162.926 21.0162C162.349 22.0222 161.611 22.8248 160.723 23.4188C159.83 24.0128 158.841 24.4301 157.75 24.6602C156.659 24.8957 155.601 25.008 154.579 24.9973H147.986L147.441 21.8616H149.794C149.366 21.1874 149.029 20.4596 148.788 19.673C148.548 18.8918 148.43 18.0624 148.43 17.1955C148.43 15.9968 148.585 14.948 148.901 14.0491C149.216 13.1501 149.633 12.3849 150.163 11.7427C150.692 11.1006 151.302 10.5869 151.997 10.1909C152.692 9.79495 153.419 9.50064 154.178 9.308C154.97 9.13676 155.718 9.06185 156.419 9.08325C157.125 9.09931 157.82 9.19562 158.515 9.35081ZM153.585 3.14355C153.932 3.14355 154.259 3.19172 154.563 3.28268C154.868 3.37365 155.141 3.50208 155.381 3.66261C155.622 3.82314 155.809 4.01043 155.938 4.21912C156.071 4.43317 156.135 4.65256 156.135 4.87731C156.135 5.1181 156.071 5.34285 155.938 5.55689C155.804 5.77093 155.622 5.95287 155.381 6.1134C155.141 6.27394 154.868 6.40236 154.563 6.49868C154.259 6.595 153.932 6.64316 153.585 6.64316C153.253 6.64316 152.938 6.595 152.633 6.49868C152.328 6.40236 152.061 6.27394 151.842 6.1134C151.617 5.95287 151.441 5.76558 151.307 5.55689C151.173 5.3482 151.109 5.1181 151.109 4.87731C151.109 4.64721 151.173 4.42781 151.307 4.21912C151.441 4.01043 151.617 3.82314 151.842 3.66261C152.066 3.50208 152.328 3.379 152.633 3.28268C152.938 3.19172 153.253 3.14355 153.585 3.14355ZM154.103 12.9895C153.66 13.332 153.285 13.7708 152.986 14.3006C152.686 14.8303 152.483 15.4029 152.366 16.0129C152.248 16.6229 152.227 17.249 152.291 17.8911C152.355 18.5332 152.521 19.1272 152.788 19.673C153.05 20.2242 153.398 20.6683 153.815 21.0215C154.237 21.3693 154.686 21.6155 155.168 21.7492C155.649 21.8884 156.135 21.9098 156.643 21.8188C157.146 21.7278 157.622 21.5138 158.066 21.182C158.526 20.8396 158.905 20.4008 159.194 19.871C159.483 19.3413 159.686 18.7687 159.804 18.1587C159.921 17.5487 159.937 16.9226 159.868 16.2804C159.793 15.6383 159.622 15.0443 159.36 14.4985C159.076 13.9474 158.734 13.5032 158.333 13.1501C157.927 12.8022 157.488 12.5561 157.007 12.4223C156.526 12.2832 156.034 12.2618 155.531 12.3474C155.029 12.433 154.553 12.6471 154.103 12.9895ZM159.237 3.14355C159.584 3.14355 159.911 3.19172 160.215 3.28268C160.52 3.37365 160.787 3.50208 161.023 3.66261C161.253 3.82314 161.434 4.01043 161.568 4.21912C161.702 4.43317 161.766 4.65256 161.766 4.87731C161.766 5.1181 161.702 5.34285 161.568 5.55689C161.434 5.77093 161.253 5.95287 161.023 6.1134C160.793 6.27394 160.525 6.40236 160.215 6.49868C159.911 6.595 159.584 6.64316 159.237 6.64316C158.889 6.64316 158.568 6.595 158.269 6.49868C157.97 6.40236 157.713 6.27394 157.488 6.1134C157.264 5.95287 157.087 5.76558 156.954 5.55689C156.82 5.3482 156.756 5.1181 156.756 4.87731C156.756 4.64721 156.82 4.42781 156.954 4.21912C157.087 4.01043 157.264 3.82314 157.488 3.66261C157.713 3.50208 157.97 3.379 158.269 3.28268C158.563 3.19172 158.889 3.14355 159.237 3.14355Z" fill="white"/>
</svg>
