<svg width="164" height="49" viewBox="0 0 164 49" fill="none" xmlns="http://www.w3.org/2000/svg">
<path d="M36.4545 1.98611C37.2484 1.98611 38.0516 2.27585 38.9528 2.88337C45.5279 7.29019 52.1917 11.5615 58.8368 15.8608C60.2471 16.7721 61.3865 17.8283 61.9749 19.4826C64.7721 27.3195 67.56 35.1612 70.4786 42.9561C71.492 45.6619 70.7308 46.7273 68.0784 46.7273C68.0036 46.7273 67.9289 46.7273 67.8542 46.7227C66.3926 46.69 49.9782 46.6619 34.2784 46.6619C20.6332 46.6619 7.52509 46.6853 5.24155 46.746C5.13882 46.7507 5.03608 46.7507 4.93802 46.7507C2.38364 46.7507 1.37496 45.8114 2.34628 43.143C5.28825 35.0677 8.26291 27.0018 11.1909 18.9218C11.7513 17.375 13.0028 16.5899 14.2589 15.7674C20.778 11.5148 27.3297 7.32291 33.7787 2.97683C34.7407 2.33193 35.5906 1.98611 36.4545 1.98611ZM36.4545 0C35.217 0 34.0122 0.420588 32.6673 1.33186C27.9975 4.47693 23.1829 7.6033 18.5271 10.6222C16.7433 11.7811 14.9594 12.9401 13.1755 14.1037L13.0775 14.1691C11.7513 15.0337 10.0981 16.1132 9.32763 18.2442C7.52042 23.2258 5.67118 28.2869 3.87797 33.1797C2.74788 36.2734 1.61312 39.3624 0.4877 42.4607C0.230861 43.1664 -0.548996 45.3067 0.646473 47.0171C1.84661 48.7368 4.17684 48.7368 4.94269 48.7368C5.05943 48.7368 5.17618 48.7368 5.29759 48.7321C7.24957 48.6807 17.8127 48.648 34.283 48.648C50.081 48.648 66.3786 48.6761 67.8168 48.7088C67.9056 48.7088 67.9943 48.7135 68.083 48.7135C68.8302 48.7135 71.0951 48.7135 72.2718 47.0171C73.4766 45.2787 72.6267 43.0028 72.3465 42.2551C69.568 34.834 66.8549 27.2354 64.2351 19.8845L63.8522 18.8096C62.9976 16.417 61.3025 15.0851 59.9202 14.1878C58.7341 13.4214 57.548 12.655 56.3572 11.884C50.9962 8.42111 45.4485 4.83676 40.0642 1.22905C38.8267 0.401895 37.6453 0 36.4545 0Z" fill="#EDAD63"/>
<path d="M30.2577 31.6364C26.9235 32.043 24.1122 30.8326 21.4598 29.0942C21.4365 30.5335 20.8761 31.7252 19.9655 32.758C19.0082 33.8421 17.8267 34.6693 16.6826 35.5292C15.814 36.1834 15.2069 36.9592 14.9268 38.0247C14.6466 39.0808 14.2917 40.1136 14.0768 41.1884C13.9368 41.8894 14.0815 42.4081 14.6933 42.8007C15.0388 43.0203 15.2863 43.3194 15.1789 43.8007C15.1042 43.9923 14.9268 44.0064 14.7353 44.0017C14.0955 43.997 13.4558 44.0017 12.816 43.997C12.1436 43.997 11.9054 43.7353 11.9941 43.0764C12.1389 42.0202 12.2836 40.9594 12.4658 39.908C12.6666 38.7537 12.8674 37.5994 12.9841 36.4264C13.0355 35.903 13.2503 35.4544 13.5865 35.0525C14.8193 33.5664 15.6179 31.8794 15.9401 29.9727C16.0335 29.4306 16.0055 28.8745 15.9634 28.3324C15.9261 27.8044 15.8841 27.2763 15.8981 26.6361C15.5432 27.3043 15.4731 27.9352 15.361 28.5521C15.221 29.3512 15.0435 30.1363 14.6512 30.856C14.3384 31.4261 13.9041 31.856 13.2503 32.0149C13.0775 32.057 12.9187 32.0663 12.7646 31.9448C12.6899 31.7065 12.76 31.4868 12.8674 31.2766C13.0308 30.9494 13.241 30.6503 13.4744 30.3653C14.1189 29.5802 14.4738 28.6642 14.4598 27.6642C14.4271 25.6734 15.3891 24.1826 16.734 22.8648C17.3597 22.2526 18.0368 21.7058 18.7933 21.2011C19.2837 21.7199 19.9234 21.7946 20.5865 21.7946C23.7433 21.7946 26.9048 21.79 30.0616 21.7993C30.8134 21.7993 31.4905 21.6638 31.9528 20.9768C32.714 21.0936 33.3258 21.4769 33.9095 21.9161C34.5025 22.3554 34.9508 22.9349 35.4412 23.477C36.0296 24.1266 36.716 24.65 37.5799 24.8462C38.8268 25.136 40.0409 24.5051 40.6387 23.2901C41.0076 22.5423 41.2551 21.7432 41.5119 20.9488C41.8435 19.9067 42.0723 18.8365 42.5299 17.8458C41.9742 16.6448 41.9555 16.3176 42.4179 15.9531C42.9595 15.9671 43.3985 16.2989 43.9075 16.5092C44.4212 16.2382 44.9816 16.2475 45.5139 16.4625C46.5973 16.9065 47.7414 17.0607 48.8855 17.2569C49.7728 17.4112 50.52 17.7663 50.7955 18.743C51.085 19.7711 50.6554 20.4254 49.5953 20.388C48.4699 20.3459 47.4379 20.6684 46.3918 20.9908C46.0603 21.0936 45.9062 21.2852 45.8315 21.6077C45.5746 22.7526 45.3131 23.8929 44.8742 24.9864C44.2391 26.5753 43.3051 27.9492 41.9742 29.0708C42.7728 30.3326 43.7534 31.3981 45.0143 32.1832C45.9062 32.7346 46.8728 32.9075 47.9142 32.6692C47.9656 32.5617 47.8115 32.5897 47.7975 32.5056C48.6193 30.5429 49.6747 28.6923 50.8982 26.9398C51.0103 26.7809 51.1224 26.6174 51.2298 26.4538C51.7668 25.6453 52.4673 25.0846 53.5413 25.0004C53.3218 24.8883 53.1537 24.8696 52.9856 24.8509C52.8175 24.8322 52.6494 24.8042 52.4859 24.7668C52.0563 24.6686 51.9116 24.3415 52.2057 24.0705C52.8082 23.5144 53.2051 22.8414 53.4059 22.0049C54.5593 21.8974 55.6754 21.6124 56.8709 21.318C56.7915 21.9629 56.8569 22.547 57.1044 23.0424C57.0717 23.3087 56.8849 23.3087 56.7355 23.3742C56.6888 23.734 56.7121 24.1359 56.3479 24.3742C56.021 24.435 55.7221 24.3602 55.4139 24.2153C55.3439 24.435 55.3298 24.6359 55.4326 24.8042C56.1564 26.0099 56.3012 27.3464 56.3852 28.711C56.4366 29.5101 56.7681 30.2204 57.2024 30.8793C57.604 31.4869 58.015 32.0897 58.4119 32.6785C58.3605 32.8327 58.1971 32.7907 58.1364 32.8982C58.3232 33.0944 58.5427 33.2673 58.6641 33.5197C58.9069 34.0151 58.7108 34.5104 58.2064 34.6413C57.8375 34.7394 57.534 34.5758 57.4032 34.216C57.3332 34.0197 57.2725 33.8235 57.2118 33.6505C57.0296 33.5664 56.9222 33.73 56.7681 33.7113C56.6561 33.6646 56.6654 33.5197 56.53 33.3982C56.9923 36.3002 57.5527 39.1322 58.0617 41.9315C57.8655 42.1511 57.618 42.0623 57.4313 42.1885C57.4079 42.4549 57.6134 42.539 57.8002 42.6091C58.1878 42.7633 58.5847 42.8895 58.9676 43.0484C59.4206 43.2353 59.4906 43.5063 59.2058 43.9643H55.9836C55.6334 43.539 55.596 42.9829 55.4372 42.4081C53.4993 42.6979 51.5613 42.6932 49.6794 42.0389C49.558 42.4735 49.6654 42.768 50.0063 43.0016C50.2724 43.1792 50.5947 43.2867 50.7441 43.5998C50.7348 43.8802 50.5526 43.9596 50.3332 43.9923C49.8989 44.0578 49.4786 43.983 49.0676 43.8381C48.4419 43.6185 47.8488 43.3334 47.2978 42.9082C47.4519 42.4081 47.7181 41.9922 47.9189 41.5389C47.8955 41.3847 47.6901 41.4314 47.6293 41.2725C48.3111 40.1276 48.9602 38.9406 49.3992 37.6555C50.1977 35.3282 50.9636 32.9916 51.7481 30.6597C51.7948 30.5148 51.8462 30.37 51.8649 30.2064C50.9729 31.2859 50.2725 32.4963 49.5346 33.7066C49.4692 33.7814 49.3805 33.6692 49.2591 33.7019C49.1564 34.4356 48.8201 34.931 47.9889 34.6226C47.5826 34.473 47.648 34.0197 47.592 33.6319C44.566 33.7253 42.7774 31.7766 41.1056 29.6082C39.672 30.4447 38.131 30.7812 36.4545 30.7251C36.5759 31.1551 36.6833 31.5523 36.8001 31.9495C37.2484 33.4963 37.636 35.0665 38.4065 36.5012C38.7801 37.1928 38.7848 38.0106 39.0649 38.7443C39.3825 39.5715 39.672 40.408 39.9662 41.2398C40.195 41.8894 40.5826 42.3707 41.2738 42.5764C41.8061 42.7399 42.2964 43.2493 42.1844 43.782C42.0816 43.9363 41.9229 43.969 41.7454 43.969C41.0263 43.969 40.3118 43.969 39.5926 43.969C39.1677 43.969 39.0229 43.6559 38.9062 43.3334C38.3598 41.8286 37.7901 40.3285 37.0943 38.8892C36.0249 36.6741 34.8808 34.5011 33.5125 32.3888C32.7 33.6318 31.8734 34.8188 31.3224 36.1507C30.7854 37.4499 30.0709 38.6742 29.7253 40.0482C29.6179 40.4781 29.4778 40.8987 29.3751 41.3286C29.1603 42.2212 29.179 42.2679 29.9448 42.768C30.3277 43.0203 30.5612 43.3241 30.4538 43.8101C30.4492 43.8335 30.4305 43.8568 30.4165 43.8802C30.2857 43.997 30.1223 43.9736 29.9682 43.9783C29.3938 43.983 28.8194 43.983 28.245 43.9783C27.4745 43.969 27.1009 43.4876 27.1943 42.7259C27.3858 41.1464 27.9835 39.679 28.3524 38.1508C28.8474 36.0853 29.5105 34.0711 30.1316 32.043C30.1736 31.9635 30.197 31.8514 30.2577 31.6364Z" fill="#1D1D1B"/>
<path d="M25.2749 21.211C23.5891 21.211 21.908 21.211 20.2222 21.211C19.363 21.211 18.966 20.8371 18.9567 19.9819C18.938 18.5987 18.9427 17.2107 18.952 15.8275C18.9567 15.1919 19.4237 14.7807 20.2082 14.6919C20.3389 14.6779 20.4697 14.6779 20.6005 14.6779C23.7572 14.6779 26.9187 14.6732 30.0801 14.6779C31.1589 14.6779 31.6212 15.1405 31.6259 16.2247C31.6305 17.4771 31.6305 18.7342 31.6259 19.9866C31.6259 20.8138 31.2336 21.2016 30.4024 21.2016C28.6932 21.2063 26.9841 21.2016 25.2703 21.2016V21.211H25.2749Z" fill="#1D1D1B"/>
<path d="M21.9828 30.1465C22.6459 30.511 23.2903 30.8615 23.9628 31.2353C23.6593 32.0672 23.3604 32.8663 23.0709 33.6747C22.6646 34.801 22.2256 35.9132 21.9081 37.0722C21.796 37.4881 21.8427 37.8619 22.0435 38.2405C22.6459 39.3807 23.253 40.5163 23.8227 41.6753C24.0842 42.2033 24.4391 42.5865 24.9761 42.8342C25.5552 43.1006 25.6673 43.3343 25.5926 44.0025C24.7613 44.0633 23.9161 44.0165 23.0942 44.0165C22.842 43.7922 22.7393 43.5212 22.6039 43.2688C21.8287 41.8108 21.1703 40.2873 20.2503 38.9041C20.0262 38.5676 19.7927 38.2358 19.5265 37.932C19.1669 37.5301 19.1903 37.0722 19.2743 36.6048C19.4144 35.8478 19.4798 35.0814 19.5685 34.315C19.5919 34.1421 19.6246 33.9925 19.7647 33.8617C20.8013 32.885 21.5485 31.726 21.9081 30.3334C21.9174 30.282 21.9454 30.2353 21.9828 30.1465Z" fill="#1D1D1B"/>
<path d="M56.8659 20.7433C55.7731 21.1966 54.643 21.4723 53.4896 21.5845C53.1347 20.9396 53.6204 19.9909 54.3489 19.7807C54.6711 19.6872 54.9886 19.6965 55.3155 19.7713C55.7498 19.8741 56.1701 19.9956 56.539 20.262C56.6884 20.3695 56.8098 20.505 56.8659 20.7433Z" fill="#1D1D1B"/>
<path d="M104.246 43.8116H104.385H107.283V46.0537H97.5996C96.728 46.0537 95.8618 45.9573 95.0169 45.7593C94.2095 45.5667 93.4288 45.2938 92.7016 44.9299C91.9904 44.5768 91.338 44.1433 90.7498 43.6403C90.167 43.1427 89.6644 42.5862 89.2419 41.9708C88.8195 41.3554 88.4987 40.6919 88.2741 40.0016C88.0442 39.2899 87.9319 38.5568 87.9319 37.813C87.9319 37.0692 88.0442 36.3415 88.2741 35.6298C88.4987 34.9395 88.8195 34.2759 89.2419 33.6606C89.659 33.0505 90.167 32.494 90.7498 31.9964C91.338 31.4934 91.9957 31.0653 92.7069 30.7121C93.4341 30.3482 94.2095 30.07 95.0169 29.8827C95.8618 29.6847 96.728 29.5938 97.5996 29.5938C98.4658 29.5938 99.3267 29.6847 100.172 29.8827C100.979 30.0753 101.76 30.3482 102.487 30.7121C103.198 31.0706 103.861 31.4987 104.455 31.9964C105.038 32.4887 105.551 33.0452 105.968 33.6606C106.39 34.2759 106.711 34.9395 106.936 35.6298C107.166 36.3415 107.278 37.0746 107.278 37.813C107.278 38.5568 107.166 39.2899 106.936 40.0016C106.711 40.6919 106.385 41.3554 105.968 41.9708C105.749 42.2972 105.497 42.6022 105.225 42.8965C104.984 43.1587 104.722 43.4049 104.449 43.6403C104.385 43.6992 104.316 43.7527 104.246 43.8116ZM102.257 42.0885C102.856 41.5373 103.321 40.9006 103.647 40.1942C104 39.4397 104.161 38.6424 104.161 37.8237C104.161 37.005 104 36.2077 103.647 35.4532C103.316 34.7468 102.856 34.1047 102.257 33.5589C101.658 33.0131 100.958 32.5957 100.172 32.296C99.3535 31.9857 98.4872 31.8358 97.5942 31.8358C96.712 31.8358 95.8564 31.9857 95.0436 32.296C94.2576 32.5957 93.5571 33.0131 92.9582 33.5589C92.354 34.1101 91.8834 34.7468 91.5519 35.4585C91.199 36.213 91.0386 37.0103 91.0386 37.8291C91.0386 38.6478 91.199 39.4451 91.5519 40.1996C91.8834 40.9113 92.3487 41.5481 92.9582 42.0992C93.5571 42.6397 94.2576 43.0624 95.0436 43.3621C95.8564 43.6724 96.712 43.8223 97.5942 43.8223C98.4819 43.8223 99.3535 43.6778 100.172 43.3621C100.958 43.0517 101.658 42.6343 102.257 42.0885Z" fill="#EDAD63"/>
<path d="M109.759 37.2928C110.112 36.5383 110.615 35.8801 111.267 35.3076C111.936 34.7189 112.722 34.2802 113.593 33.9645C114.55 33.6166 115.566 33.4668 116.598 33.4668C117.63 33.4668 118.652 33.6166 119.609 33.9645C120.069 34.1303 120.513 34.3337 120.924 34.5745C121.288 34.7885 121.63 35.0293 121.946 35.3076C122.598 35.8801 123.101 36.5437 123.459 37.2928C123.828 38.0634 123.994 38.8821 123.994 39.7169V45.5602H120.924V44.8646C120.513 45.1054 120.069 45.3034 119.603 45.4693C118.636 45.8171 117.609 45.9616 116.566 45.9616C115.545 45.9616 114.534 45.8117 113.588 45.4639C112.722 45.1482 111.936 44.7094 111.267 44.1261C110.615 43.5589 110.118 42.8954 109.765 42.1462C109.396 41.3703 109.225 40.557 109.225 39.7169C109.225 38.8821 109.39 38.0634 109.759 37.2928ZM120.641 41.381C120.78 41.076 120.871 40.755 120.919 40.4339C120.956 40.1985 120.978 39.9577 120.978 39.7169C120.978 39.4814 120.962 39.246 120.919 39.0105C120.865 38.6894 120.775 38.3737 120.635 38.0687C120.422 37.5871 120.117 37.1483 119.71 36.7738C119.315 36.4045 118.844 36.1263 118.315 35.9283C117.769 35.725 117.192 35.634 116.604 35.634C116.016 35.634 115.449 35.7303 114.903 35.9283C114.374 36.1263 113.914 36.4099 113.513 36.7738C113.107 37.1483 112.797 37.5818 112.583 38.0687C112.347 38.5931 112.251 39.1496 112.251 39.7169C112.251 40.2841 112.347 40.8459 112.583 41.3757C112.802 41.8626 113.112 42.3014 113.518 42.676C113.919 43.0399 114.39 43.3288 114.919 43.5268C115.459 43.7302 116.032 43.8211 116.62 43.8211C117.208 43.8211 117.785 43.7302 118.331 43.5268C118.86 43.3288 119.325 43.0452 119.721 42.6813C120.128 42.3068 120.427 41.8626 120.641 41.381Z" fill="#EDAD63"/>
<path d="M127.469 45.5615V36.8928H125.95V34.7684H127.469V34.0086C127.469 32.0394 129.068 30.3324 131.239 29.9739C131.517 29.9257 131.8 29.9043 132.078 29.9043H133.57V32.0287H132.731C131.522 32.0287 130.538 32.9062 130.538 33.9818V34.7684H133.57V36.8928H130.538V45.5615H127.469Z" fill="#EDAD63"/>
<path d="M138.966 30.4283C138.966 31.2738 138.196 31.9641 137.244 31.9641C136.292 31.9641 135.522 31.2792 135.522 30.4283C135.522 29.5829 136.292 28.8926 137.244 28.8926C138.19 28.8979 138.966 29.5829 138.966 30.4283ZM138.773 45.5612H135.704V33.8905H138.773V45.5612Z" fill="#EDAD63"/>
<path d="M144.002 29.9102V41.4899C144.002 42.5654 144.986 43.443 146.195 43.443H147.034V45.5674H145.542C145.259 45.5674 144.976 45.546 144.703 45.4978C142.532 45.1393 140.933 43.4323 140.933 41.4631V29.9102H144.002Z" fill="#EDAD63"/>
<path d="M149.526 37.2928C149.879 36.5383 150.381 35.8801 151.034 35.3076C151.702 34.7189 152.488 34.2802 153.36 33.9645C154.317 33.6166 155.333 33.4668 156.365 33.4668C157.397 33.4668 158.418 33.6166 159.375 33.9645C159.835 34.1303 160.279 34.3337 160.691 34.5745C161.054 34.7885 161.397 35.0293 161.712 35.3076C162.365 35.8801 162.867 36.5437 163.225 37.2928C163.594 38.0634 163.76 38.8821 163.76 39.7169V45.5602H160.691V44.8646C160.279 45.1054 159.835 45.3034 159.37 45.4693C158.402 45.8171 157.376 45.9616 156.333 45.9616C155.312 45.9616 154.301 45.8117 153.355 45.4639C152.488 45.1482 151.702 44.7094 151.034 44.1261C150.381 43.5589 149.884 42.8954 149.531 42.1462C149.162 41.3703 148.991 40.557 148.991 39.7169C148.991 38.8821 149.162 38.0634 149.526 37.2928ZM160.413 41.381C160.552 41.076 160.643 40.755 160.691 40.4339C160.728 40.1985 160.75 39.9577 160.75 39.7169C160.75 39.4814 160.734 39.246 160.691 39.0105C160.637 38.6894 160.546 38.3737 160.407 38.0687C160.194 37.5871 159.889 37.1483 159.482 36.7738C159.087 36.4045 158.616 36.1263 158.087 35.9283C157.541 35.725 156.964 35.634 156.376 35.634C155.787 35.634 155.221 35.7303 154.675 35.9283C154.146 36.1263 153.686 36.4099 153.285 36.7738C152.879 37.1483 152.568 37.5818 152.355 38.0687C152.119 38.5931 152.023 39.1496 152.023 39.7169C152.023 40.2841 152.119 40.8459 152.355 41.3757C152.574 41.8626 152.884 42.3014 153.29 42.676C153.691 43.0399 154.162 43.3288 154.691 43.5268C155.231 43.7302 155.804 43.8211 156.392 43.8211C156.98 43.8211 157.557 43.7302 158.103 43.5268C158.632 43.3288 159.097 43.0452 159.493 42.6813C159.894 42.3068 160.199 41.8626 160.413 41.381Z" fill="#EDAD63"/>
<path d="M102.738 9.16449L102.786 21.8519H105.043L105.588 24.9876H98.9951V12.3163H96.1717C95.6584 12.3163 95.1397 12.4126 94.6104 12.5999C94.081 12.7872 93.6051 13.0761 93.188 13.4668C92.7656 13.8574 92.4234 14.3497 92.1614 14.9437C91.8993 15.5376 91.7657 16.2493 91.7657 17.068C91.7657 17.8707 91.8887 18.5663 92.14 19.171C92.3859 19.7703 92.7175 20.268 93.1292 20.664C93.5409 21.0599 94.0115 21.3542 94.5409 21.5576C95.0702 21.7556 95.6156 21.8572 96.1771 21.8572H98.1609L98.1342 24.993H97.1182C96.4391 24.993 95.744 24.9448 95.0221 24.8538C94.3002 24.7629 93.5998 24.6023 92.9153 24.3669C92.2309 24.1315 91.5839 23.8264 90.985 23.4412C90.3807 23.0559 89.8514 22.5743 89.3862 21.9857C88.921 21.3971 88.5627 20.7014 88.2953 19.8934C88.0333 19.0854 87.8997 18.1489 87.8997 17.0734C87.8997 15.7945 88.1724 14.6226 88.7178 13.5577C89.2632 12.4929 89.9797 11.5885 90.8727 10.834C91.2684 10.5237 91.6748 10.2668 92.0865 10.0635C92.4982 9.86013 92.91 9.69425 93.327 9.56582C93.8083 9.42669 94.359 9.33038 94.9847 9.26616C95.6103 9.20195 96.3215 9.16984 97.1182 9.16984H102.738V9.16449ZM93.7922 3.14453C94.1398 3.14453 94.466 3.19269 94.7708 3.28366C95.0756 3.37463 95.3429 3.50305 95.5782 3.66359C95.8081 3.82412 95.9899 4.01141 96.1236 4.2201C96.2573 4.43414 96.3215 4.65354 96.3215 4.87828C96.3215 5.11908 96.2573 5.34382 96.1236 5.55787C95.9899 5.77191 95.8081 5.95385 95.5782 6.11438C95.3483 6.27491 95.0756 6.40334 94.7708 6.49966C94.466 6.59598 94.1398 6.64414 93.7922 6.64414C93.4607 6.64414 93.1452 6.59598 92.8405 6.49966C92.5357 6.40334 92.2683 6.27491 92.0491 6.11438C91.8245 5.95385 91.648 5.76656 91.5144 5.55787C91.3807 5.34918 91.3165 5.11908 91.3165 4.87828C91.3165 4.64819 91.3807 4.42879 91.5144 4.2201C91.648 4.01141 91.8245 3.82412 92.0491 3.66359C92.2737 3.50305 92.5357 3.37998 92.8405 3.28366C93.1452 3.19269 93.4607 3.14453 93.7922 3.14453ZM99.4175 3.14453C99.765 3.14453 100.097 3.19269 100.407 3.28366C100.722 3.37463 100.995 3.50305 101.225 3.66359C101.455 3.82412 101.637 4.01141 101.77 4.2201C101.904 4.43414 101.968 4.65354 101.968 4.87828C101.968 5.11908 101.904 5.34382 101.77 5.55787C101.637 5.77191 101.455 5.95385 101.225 6.11438C100.995 6.27491 100.722 6.40334 100.407 6.49966C100.091 6.59598 99.765 6.64414 99.4175 6.64414C99.086 6.64414 98.7705 6.59598 98.4657 6.49966C98.1609 6.40334 97.8935 6.27491 97.6743 6.11438C97.4497 5.95385 97.2733 5.76656 97.1396 5.55787C97.0059 5.34918 96.9417 5.11908 96.9417 4.87828C96.9417 4.64819 97.0059 4.42879 97.1396 4.2201C97.2733 4.01141 97.4497 3.82412 97.6743 3.66359C97.8989 3.50305 98.1609 3.37998 98.4657 3.28366C98.7705 3.19269 99.086 3.14453 99.4175 3.14453Z" fill="#1D1D1B"/>
<path d="M111.561 2.68359H115.325L115.277 17.2599C115.325 18.0358 115.486 18.7154 115.748 19.2933C116.01 19.8713 116.357 20.3475 116.774 20.7274C117.197 21.102 117.673 21.3856 118.197 21.5782C118.726 21.7655 119.272 21.8618 119.833 21.8618H120.774L121.32 24.9976H120.747C120.122 24.9976 119.469 24.9601 118.801 24.8799C118.133 24.7996 117.475 24.6605 116.833 24.4678C116.192 24.2752 115.571 24.013 114.988 23.6812C114.4 23.3495 113.876 22.9321 113.416 22.4291C112.935 22.9321 112.406 23.3495 111.818 23.6812C111.229 24.013 110.614 24.2752 109.973 24.4678C109.331 24.6605 108.673 24.7996 108.005 24.8799C107.337 24.9601 106.69 24.9976 106.059 24.9976H105.588L105.043 21.8618H107C107.561 21.8618 108.107 21.7655 108.636 21.5782C109.165 21.391 109.641 21.1073 110.058 20.7274C110.481 20.3528 110.823 19.8713 111.085 19.2933C111.347 18.7154 111.507 18.0412 111.556 17.2599V2.68359H111.561Z" fill="#1D1D1B"/>
<path d="M131.854 9.35178C132.233 9.48021 132.613 9.63539 132.993 9.83338C133.372 10.026 133.752 10.2722 134.132 10.5718C134.575 10.9518 134.987 11.3852 135.356 11.8775C135.73 12.3698 136.041 12.8995 136.297 13.4721C136.554 14.0447 136.757 14.644 136.907 15.2701C137.057 15.8961 137.131 16.5383 137.131 17.1911C137.131 18.7322 136.843 20.0111 136.265 21.0171C135.688 22.0231 134.95 22.8258 134.062 23.4198C133.169 24.0137 132.18 24.4311 131.089 24.6612C129.998 24.8967 128.94 25.009 127.918 24.9983H121.32L120.774 21.8626H123.127C122.699 21.1884 122.363 20.4606 122.122 19.674C121.881 18.8927 121.764 18.0633 121.764 17.1965C121.764 15.9978 121.919 14.949 122.234 14.05C122.55 13.151 122.967 12.3858 123.496 11.7437C124.026 11.1016 124.635 10.5879 125.33 10.1919C126.025 9.79592 126.753 9.50161 127.512 9.30897C128.303 9.13774 129.052 9.06282 129.752 9.08423C130.464 9.10028 131.159 9.1966 131.854 9.35178ZM127.442 12.9905C126.999 13.333 126.624 13.7718 126.325 14.3015C126.025 14.8313 125.822 15.4038 125.705 16.0139C125.587 16.6239 125.565 17.25 125.63 17.8921C125.694 18.5342 125.86 19.1282 126.127 19.674C126.389 20.2252 126.737 20.6693 127.154 21.0225C127.576 21.3703 128.025 21.6164 128.506 21.7502C128.988 21.8894 129.474 21.9108 129.982 21.8198C130.485 21.7288 130.961 21.5148 131.405 21.183C131.864 20.8405 132.244 20.4018 132.533 19.872C132.822 19.3422 133.025 18.7697 133.142 18.1596C133.26 17.5496 133.276 16.9236 133.207 16.2814C133.132 15.6393 132.961 15.0453 132.699 14.4995C132.415 13.9484 132.073 13.5042 131.672 13.151C131.266 12.8032 130.827 12.5571 130.346 12.4233C129.865 12.2842 129.373 12.2628 128.87 12.3484C128.362 12.434 127.886 12.648 127.442 12.9905ZM129.03 3.14453C129.378 3.14453 129.704 3.19269 130.009 3.28366C130.314 3.37463 130.586 3.50305 130.827 3.66359C131.068 3.82412 131.255 4.01141 131.383 4.2201C131.517 4.43414 131.581 4.65354 131.581 4.87828C131.581 5.11908 131.517 5.34382 131.383 5.55787C131.25 5.77191 131.068 5.95385 130.827 6.11438C130.586 6.27491 130.314 6.40334 130.009 6.49966C129.704 6.59598 129.378 6.64414 129.03 6.64414C128.699 6.64414 128.383 6.59598 128.079 6.49966C127.774 6.40334 127.507 6.27491 127.287 6.11438C127.063 5.95385 126.886 5.76656 126.753 5.55787C126.619 5.34918 126.555 5.11908 126.555 4.87828C126.555 4.64819 126.619 4.42879 126.753 4.2201C126.886 4.01141 127.063 3.82412 127.287 3.66359C127.512 3.50305 127.774 3.37998 128.079 3.28366C128.378 3.19269 128.699 3.14453 129.03 3.14453Z" fill="#1D1D1B"/>
<path d="M141.965 16.7949C141.965 17.6511 142.093 18.3949 142.35 19.0263C142.607 19.6577 142.949 20.1821 143.377 20.6049C143.805 21.0276 144.291 21.3433 144.837 21.5466C145.382 21.75 145.954 21.857 146.548 21.857H147.441L147.986 24.9927H147.489C146.81 24.9927 146.115 24.9446 145.393 24.8536C144.676 24.7626 143.976 24.6021 143.297 24.3667C142.617 24.1312 141.976 23.8262 141.366 23.4409C140.757 23.0557 140.217 22.5741 139.757 21.9854C139.292 21.3968 138.933 20.7012 138.666 19.8932C138.404 19.0851 138.27 18.1487 138.27 17.0731C138.27 14.6598 138.265 12.2625 138.26 9.8813C138.254 7.50007 138.254 5.10279 138.27 2.68945H141.987L141.965 16.7949Z" fill="#1D1D1B"/>
<path d="M158.515 9.35178C158.895 9.48021 159.274 9.63539 159.654 9.83338C160.034 10.026 160.413 10.2722 160.793 10.5718C161.237 10.9518 161.648 11.3852 162.017 11.8775C162.392 12.3698 162.702 12.8995 162.958 13.4721C163.215 14.0447 163.418 14.644 163.568 15.2701C163.718 15.8961 163.793 16.5383 163.793 17.1911C163.793 18.7322 163.504 20.0111 162.926 21.0171C162.349 22.0231 161.611 22.8258 160.723 23.4198C159.83 24.0137 158.841 24.4311 157.75 24.6612C156.659 24.8967 155.601 25.009 154.579 24.9983H147.986L147.441 21.8626H149.794C149.366 21.1884 149.029 20.4606 148.788 19.674C148.548 18.8927 148.43 18.0633 148.43 17.1965C148.43 15.9978 148.585 14.949 148.901 14.05C149.216 13.151 149.633 12.3858 150.163 11.7437C150.692 11.1016 151.302 10.5879 151.997 10.1919C152.692 9.79592 153.419 9.50161 154.178 9.30897C154.97 9.13774 155.718 9.06282 156.419 9.08423C157.125 9.10028 157.82 9.1966 158.515 9.35178ZM153.585 3.14453C153.932 3.14453 154.259 3.19269 154.563 3.28366C154.868 3.37463 155.141 3.50305 155.381 3.66359C155.622 3.82412 155.809 4.01141 155.938 4.2201C156.071 4.43414 156.135 4.65354 156.135 4.87828C156.135 5.11908 156.071 5.34382 155.938 5.55787C155.804 5.77191 155.622 5.95385 155.381 6.11438C155.141 6.27491 154.868 6.40334 154.563 6.49966C154.259 6.59598 153.932 6.64414 153.585 6.64414C153.253 6.64414 152.938 6.59598 152.633 6.49966C152.328 6.40334 152.061 6.27491 151.842 6.11438C151.617 5.95385 151.441 5.76656 151.307 5.55787C151.173 5.34918 151.109 5.11908 151.109 4.87828C151.109 4.64819 151.173 4.42879 151.307 4.2201C151.441 4.01141 151.617 3.82412 151.842 3.66359C152.066 3.50305 152.328 3.37998 152.633 3.28366C152.938 3.19269 153.253 3.14453 153.585 3.14453ZM154.103 12.9905C153.66 13.333 153.285 13.7718 152.986 14.3015C152.686 14.8313 152.483 15.4038 152.366 16.0139C152.248 16.6239 152.227 17.25 152.291 17.8921C152.355 18.5342 152.521 19.1282 152.788 19.674C153.05 20.2252 153.398 20.6693 153.815 21.0225C154.237 21.3703 154.686 21.6164 155.168 21.7502C155.649 21.8894 156.135 21.9108 156.643 21.8198C157.146 21.7288 157.622 21.5148 158.066 21.183C158.526 20.8405 158.905 20.4018 159.194 19.872C159.483 19.3422 159.686 18.7697 159.804 18.1596C159.921 17.5496 159.937 16.9236 159.868 16.2814C159.793 15.6393 159.622 15.0453 159.36 14.4995C159.076 13.9484 158.734 13.5042 158.333 13.151C157.927 12.8032 157.488 12.5571 157.007 12.4233C156.526 12.2842 156.034 12.2628 155.531 12.3484C155.029 12.434 154.553 12.648 154.103 12.9905ZM159.237 3.14453C159.584 3.14453 159.911 3.19269 160.215 3.28366C160.52 3.37463 160.787 3.50305 161.023 3.66359C161.253 3.82412 161.434 4.01141 161.568 4.2201C161.702 4.43414 161.766 4.65354 161.766 4.87828C161.766 5.11908 161.702 5.34382 161.568 5.55787C161.434 5.77191 161.253 5.95385 161.023 6.11438C160.793 6.27491 160.525 6.40334 160.215 6.49966C159.911 6.59598 159.584 6.64414 159.237 6.64414C158.889 6.64414 158.568 6.59598 158.269 6.49966C157.97 6.40334 157.713 6.27491 157.488 6.11438C157.264 5.95385 157.087 5.76656 156.954 5.55787C156.82 5.34918 156.756 5.11908 156.756 4.87828C156.756 4.64819 156.82 4.42879 156.954 4.2201C157.087 4.01141 157.264 3.82412 157.488 3.66359C157.713 3.50305 157.97 3.37998 158.269 3.28366C158.563 3.19269 158.889 3.14453 159.237 3.14453Z" fill="#1D1D1B"/>
</svg>
